<?xml version="1.0" encoding="UTF-8"?>
<svg version="1.1" xmlns="http://www.w3.org/2000/svg" width="429" height="162">
<path d="M0 0 C141.57 0 283.14 0 429 0 C429 53.46 429 106.92 429 162 C287.43 162 145.86 162 0 162 C0 108.54 0 55.08 0 0 Z " fill="#F2F2B6" transform="translate(0,0)"/>
<path d="M0 0 C141.57 0 283.14 0 429 0 C429 53.46 429 106.92 429 162 C287.43 162 145.86 162 0 162 C0 108.54 0 55.08 0 0 Z M14.6171875 34.0078125 C10.97277881 38.49730147 8.65826934 42.47243553 7 48 C6.50883493 49.33661313 6.0083044 50.66981038 5.5 52 C-1.23529308 69.92676492 -0.53711244 87.18873711 6 105 C6.31066406 105.88171875 6.62132812 106.7634375 6.94140625 107.671875 C15.09570955 128.29531474 36.55183473 146.59508857 56 156 C66.27359244 159.88912799 75.65047457 161.14901041 86.55418396 161.14717102 C87.7247901 161.15084771 88.89539624 161.1545244 90.1014753 161.1583125 C93.34261962 161.16741057 96.58373418 161.1720427 99.82488906 161.17470181 C103.32408864 161.17861705 106.82327371 161.18819456 110.32246399 161.19691467 C118.76949391 161.21664557 127.21652497 161.22674139 135.66357216 161.23564246 C139.64691676 161.24003123 143.63026004 161.24539654 147.61360359 161.25063133 C160.86480527 161.26764087 174.11600615 161.28213314 187.36721706 161.28938007 C190.80332376 161.29128979 194.23943044 161.29321015 197.67553711 161.29516602 C198.5295065 161.29564976 199.38347589 161.2961335 200.26332314 161.2966319 C214.08474982 161.30492515 227.90608977 161.33025138 241.72747862 161.36274669 C255.93538864 161.39587687 270.14325467 161.41383424 284.3512035 161.41702431 C292.3211954 161.41918399 300.29106083 161.42785278 308.26101494 161.45348549 C315.05120483 161.47527415 321.84123751 161.48320306 328.63145839 161.47351871 C332.09061149 161.46899736 335.5494408 161.47073215 339.00854874 161.49028015 C358.85920358 161.64370051 358.85920358 161.64370051 378 157 C378.9431327 156.67850133 379.88626539 156.35700266 380.85797787 156.0257616 C394.50891297 151.2419201 404.55519813 142.40073011 412.88671875 130.90234375 C414.25036916 129.02952997 415.66601358 127.19300545 417.140625 125.40625 C427.83386042 111.56794534 427.00672175 90.49650863 426 74 C425.6982046 72.32733493 425.37430818 70.6579452 425 69 C424.34 69 423.68 69 423 69 C422.9071875 67.081875 422.9071875 67.081875 422.8125 65.125 C420.69193579 47.00124452 403.2207949 31.76768367 389.765625 21.09375 C375.1309892 10.0144212 360.64193821 4.85434326 342.30741882 4.84609985 C341.1218896 4.8417176 339.93636038 4.83733535 338.71490604 4.8328203 C335.43201885 4.82178685 332.1491585 4.81521757 328.86625707 4.81063914 C325.32202728 4.80466452 321.77781484 4.79305922 318.2335968 4.78234863 C309.67680752 4.75786469 301.12001252 4.74320211 292.56319901 4.73028857 C290.14375464 4.7265733 287.72431084 4.72260034 285.30486703 4.7185359 C270.2605177 4.69329288 255.21616739 4.67125321 240.17180157 4.65880775 C236.68964828 4.65587835 233.20749502 4.65291665 229.7253418 4.64990234 C228.85993457 4.64915629 227.99452734 4.64841024 227.10289565 4.64764158 C213.10173658 4.63500342 199.10070493 4.60179889 185.09960534 4.56010051 C170.70410451 4.51758133 156.30866873 4.49410112 141.91310531 4.48888719 C133.83905945 4.48548407 125.76521263 4.47385955 117.69122887 4.44078445 C110.81104537 4.412645 103.93110175 4.40184495 97.0508652 4.41297992 C93.54683957 4.41813163 90.04331513 4.41551102 86.53936386 4.39051437 C56.26527767 4.20915594 34.67683435 10.61876368 14.6171875 34.0078125 Z " fill="#FDFEFD" transform="translate(0,0)"/>
<path d="M0 0 C10.28540903 4.74197429 17.64324322 16.80407828 22.3046875 26.796875 C23.61961197 30.52875587 24.38290355 34.04332997 24 38 C24.66 38 25.32 38 26 38 C29.61820873 54.14810016 28.72656135 76.30847175 20.328125 91.0390625 C6.56077693 111.36614701 -8.52019574 123.95719882 -32.54674089 129.3722688 C-37.84728862 130.33579893 -43.01439779 130.41781875 -48.38923645 130.38768005 C-50.15305877 130.39575836 -50.15305877 130.39575836 -51.95251387 130.40399987 C-55.17601754 130.41572744 -58.39918357 130.41425781 -61.62268937 130.40683305 C-65.11498402 130.40206577 -68.60722547 130.41464247 -72.09950256 130.42485046 C-78.92577685 130.44197517 -85.75195884 130.44289162 -92.57824901 130.43763756 C-98.13177739 130.43358245 -103.68527867 130.43505528 -109.23880577 130.44038582 C-110.03172887 130.44113424 -110.82465197 130.44188266 -111.64160305 130.44265376 C-113.25286741 130.44418538 -114.86413177 130.44572372 -116.47539612 130.44726873 C-131.55817424 130.46097111 -146.64090038 130.45557224 -161.7236773 130.44408352 C-175.4922614 130.43415554 -189.26071102 130.4470883 -203.02927438 130.47101771 C-217.20013266 130.49545887 -231.37092844 130.50500416 -245.54180735 130.49836498 C-253.48432526 130.49488362 -261.42673986 130.49703274 -269.36924171 130.51461601 C-276.1310707 130.52940102 -282.89272363 130.52989191 -289.6545494 130.5125451 C-293.09766018 130.50408375 -296.54045732 130.50176448 -299.98355103 130.51719666 C-323.37032228 130.60014797 -344.92015973 128.72881923 -363 112 C-365.5625 109.0625 -365.5625 109.0625 -367 107 C-362.15879294 108.84765334 -357.63502895 111.18837216 -353.03515625 113.5625 C-343.57520208 118.04289013 -334.32758473 118.14814272 -324.05776978 118.13371277 C-322.27562956 118.1371111 -322.27562956 118.1371111 -320.45748651 118.14057809 C-317.17699889 118.14579627 -313.89654592 118.1465659 -310.61605549 118.14538372 C-307.07131881 118.14517899 -303.52659019 118.1507053 -299.9818573 118.15544128 C-293.04397062 118.1637323 -286.10609244 118.16649541 -279.16820122 118.16705366 C-273.52726735 118.16752949 -267.88633628 118.16958757 -262.24540329 118.17275429 C-246.24010292 118.18155608 -230.23480925 118.18617432 -214.22950645 118.18542381 C-213.3674412 118.18538386 -212.50537594 118.1853439 -211.6171875 118.18530273 C-210.75406572 118.18526185 -209.89094394 118.18522097 -209.00166695 118.18517885 C-195.01212312 118.18477236 -181.02260621 118.19434401 -167.03307016 118.2084411 C-152.65674893 118.22281328 -138.28044082 118.22971084 -123.90411222 118.22884732 C-115.83766058 118.22851568 -107.77123717 118.23124857 -99.70479202 118.24202538 C-92.8376818 118.25114138 -85.97061261 118.25329654 -79.10349895 118.24651595 C-75.60251511 118.2432565 -72.10160993 118.24317324 -68.60063362 118.2518692 C-64.79908484 118.25959023 -60.99774189 118.25494333 -57.19619751 118.24723816 C-56.09851693 118.25238172 -55.00083635 118.25752529 -53.86989272 118.26282471 C-36.2222492 118.18392684 -20.41091729 112.6560493 -7.5234375 100.28515625 C-6 99 -6 99 -4 99 C-3.76796875 98.45601563 -3.5359375 97.91203125 -3.296875 97.3515625 C-1.63777303 94.34319085 0.52071304 91.98934562 2.75 89.375 C13.046202 76.68100136 15.19359193 60.76812833 15.3125 44.9375 C15.35600586 43.04741211 15.35600586 43.04741211 15.40039062 41.11914062 C15.47913484 29.39836677 13.19311887 20.27533749 6 11 C5.31246699 9.34183216 4.64438717 7.67540664 4 6 C2.70211044 3.97681922 1.37535339 1.97133986 0 0 Z " fill="#438D5E" transform="translate(399,31)"/>
<path d="M0 0 C20 0 20 0 24.98046875 4.5234375 C26.68554688 7.3671875 26.68554688 7.3671875 28.1875 10.375 C28.75662109 11.35984375 29.32574219 12.3446875 29.91210938 13.359375 C31.72085363 16.52196975 33.37129145 19.7425829 35 23 C35.33 15.41 35.66 7.82 36 0 C42.6 0 49.2 0 56 0 C56 20.79 56 41.58 56 63 C37 63 37 63 32.3359375 58.94921875 C30.7578125 56.39257812 30.7578125 56.39257812 29.375 53.6875 C28.8490625 52.80642578 28.323125 51.92535156 27.78125 51.01757812 C25.84995245 47.72786792 24.20761745 44.62285234 23 41 C22.34 41 21.68 41 21 41 C21 48.26 21 55.52 21 63 C14.07 63 7.14 63 0 63 C0 42.21 0 21.42 0 0 Z " fill="#3D8A59" transform="translate(209,45)"/>
<path d="M0 0 C6.414375 -0.12375 12.82875 -0.2475 19.4375 -0.375 C21.44384521 -0.42962402 23.45019043 -0.48424805 25.51733398 -0.54052734 C41.28196593 -0.79131423 41.28196593 -0.79131423 47.50390625 4.37719727 C53.80828837 11.21551775 53.46421067 18.27628075 53.23828125 27.171875 C53.05922316 30.048546 52.75081478 32.27484843 52 35 C51.34 35 50.68 35 50 35 C49.9175 35.556875 49.835 36.11375 49.75 36.6875 C48.41513658 40.80332889 46.06984744 43.30550862 42.47265625 45.640625 C37.89934359 47.43085313 33.98128983 47.33011695 29.125 47.1875 C28.24585938 47.17396484 27.36671875 47.16042969 26.4609375 47.14648438 C24.30702448 47.11136623 22.15342996 47.05756694 20 47 C20 51.95 20 56.9 20 62 C13.4 62 6.8 62 0 62 C0 41.54 0 21.08 0 0 Z " fill="#3B8958" transform="translate(124,46)"/>
<path d="M0 0 C1.421875 2.1796875 1.421875 2.1796875 2.75 4.875 C3.19859375 5.75929688 3.6471875 6.64359375 4.109375 7.5546875 C5 10 5 10 4 13 C1.99047852 14.44213867 1.99047852 14.44213867 -0.62109375 15.91796875 C-1.55630859 16.44970703 -2.49152344 16.98144531 -3.45507812 17.52929688 C-4.43927734 18.07650391 -5.42347656 18.62371094 -6.4375 19.1875 C-7.41783203 19.74630859 -8.39816406 20.30511719 -9.40820312 20.88085938 C-16.71603136 25 -16.71603136 25 -19 25 C-19 25.66 -19 26.32 -19 27 C-17.80503906 27.33644531 -17.80503906 27.33644531 -16.5859375 27.6796875 C-11.97923704 29.37583647 -7.88280259 31.70070092 -3.625 34.125 C-2.79355469 34.59292969 -1.96210937 35.06085938 -1.10546875 35.54296875 C0.93234954 36.69070549 2.96735569 37.84313282 5 39 C4.23044011 42.22197059 3.18985144 45.17971906 1.9375 48.25 C1.57527344 49.14203125 1.21304688 50.0340625 0.83984375 50.953125 C0.56269531 51.62859375 0.28554687 52.3040625 0 53 C-3.76004934 52.41748653 -6.51645593 51.35851498 -9.80078125 49.453125 C-10.69603516 48.9375 -11.59128906 48.421875 -12.51367188 47.890625 C-13.43728516 47.34921875 -14.36089844 46.8078125 -15.3125 46.25 C-16.22451172 45.7240625 -17.13652344 45.198125 -18.07617188 44.65625 C-19.87715712 43.61309869 -21.66990446 42.55557927 -23.45361328 41.4831543 C-25.94498342 39.98535407 -25.94498342 39.98535407 -28.43310547 38.83911133 C-30.6391222 37.72143855 -32.2910679 36.79030982 -34 35 C-34.94857727 31.67230257 -34.76560665 28.61229338 -34.5 25.1875 C-34.46390625 24.30384766 -34.4278125 23.42019531 -34.390625 22.50976562 C-34.29670953 20.33797028 -34.15321507 18.16841885 -34 16 C-33.38068604 15.66266846 -32.76137207 15.32533691 -32.12329102 14.9777832 C-29.26948503 13.42307205 -26.41599093 11.86778931 -23.5625 10.3125 C-22.58861328 9.78205078 -21.61472656 9.25160156 -20.61132812 8.70507812 C-19.64775391 8.17978516 -18.68417969 7.65449219 -17.69140625 7.11328125 C-16.73508301 6.59459473 -15.77875977 6.0759082 -14.79345703 5.54150391 C-12.9733541 4.53712269 -11.16603116 3.50911077 -9.37451172 2.45458984 C-8.57932129 1.98875488 -7.78413086 1.52291992 -6.96484375 1.04296875 C-6.26866943 0.62426514 -5.57249512 0.20556152 -4.85522461 -0.22583008 C-3 -1 -3 -1 0 0 Z " fill="#3D8A59" transform="translate(103,51)"/>
<path d="M0 0 C6.05926428 1.62590258 11.13395613 4.79046869 16.5 7.9375 C18.34289062 9.01059182 20.18661889 10.08224659 22.03125 11.15234375 C22.84142578 11.62663818 23.65160156 12.10093262 24.48632812 12.58959961 C27.27362739 14.15353005 30.14134079 15.57067039 33 17 C33 23.27 33 29.54 33 36 C29.37677152 38.06566365 25.75150038 40.12759445 22.125 42.1875 C21.11179687 42.76564453 20.09859375 43.34378906 19.0546875 43.93945312 C12.79307735 47.49171273 6.47761899 50.85816623 0 54 C-1.0076952 52.2335343 -2.00591714 50.46166177 -3 48.6875 C-3.556875 47.70136719 -4.11375 46.71523437 -4.6875 45.69921875 C-6 43 -6 43 -6 40 C-2.56853286 37.98951049 0.87110912 35.99344755 4.3125 34 C5.28896484 33.42765625 6.26542969 32.8553125 7.27148438 32.265625 C8.20927734 31.72421875 9.14707031 31.1828125 10.11328125 30.625 C11.40939331 29.87089844 11.40939331 29.87089844 12.73168945 29.1015625 C15 28 15 28 18 28 C18 27.34 18 26.68 18 26 C17.19175781 25.77183594 16.38351562 25.54367188 15.55078125 25.30859375 C11.11921342 23.67539769 7.24427977 21.45921643 3.1875 19.0625 C2.41212891 18.61970703 1.63675781 18.17691406 0.83789062 17.72070312 C-0.2671582 17.07198242 -0.2671582 17.07198242 -1.39453125 16.41015625 C-2.06331299 16.01965088 -2.73209473 15.62914551 -3.42114258 15.22680664 C-5 14 -5 14 -6 11 C-4.78515625 8.30078125 -4.78515625 8.30078125 -3.0625 5.3125 C-2.49660156 4.31863281 -1.93070312 3.32476562 -1.34765625 2.30078125 C-0.90292969 1.54152344 -0.45820313 0.78226563 0 0 Z " fill="#3D8959" transform="translate(314,50)"/>
<path d="M0 0 C5.46341463 2.92682927 5.46341463 2.92682927 7 6 C7.43808718 10.28819956 7.44926618 13.94422448 5.75 17.9375 C3.43633869 20.66431511 1.35897841 21.7909264 -2.18359375 22.3359375 C-6.28583452 22.40703353 -8.43361845 22.35398847 -12 20.125 C-15.79712544 16.09055421 -15.46275191 12.23100931 -15.3984375 6.8671875 C-15 4 -15 4 -12.5625 1.25 C-8.17468082 -0.28958568 -4.59366145 -0.83670262 0 0 Z " fill="#418C5C" transform="translate(288,87)"/>
<path d="M0 0 C3.50957398 4.04950844 3.0749192 7.50757607 3.0390625 12.71875 C2.33146267 16.35783483 1.30175662 17.53825879 -1.5625 19.8125 C-5.00356055 21.53303028 -8.79232365 21.19668032 -12.5625 20.8125 C-14.98119578 19.6535416 -16.68572096 18.68927904 -18.5625 16.8125 C-19.04440487 12.09715237 -19.12304087 7.52214238 -18.5625 2.8125 C-13.67820789 -2.94845993 -6.62636678 -2.20878893 0 0 Z " fill="#408C5B" transform="translate(199.5625,88.1875)"/>
<path d="M0 0 C7.71484375 -0.09765625 7.71484375 -0.09765625 10 0 C11.80746134 1.80746134 11.17303483 4.50445781 11.1875 6.9375 C11.20167969 8.01902344 11.21585938 9.10054687 11.23046875 10.21484375 C11 13 11 13 9 15 C5.98173347 15.27240673 3.03629378 15.08675125 0 15 C0 10.05 0 5.1 0 0 Z " fill="#EBEEB3" transform="translate(144,62)"/>
<path d="M0 0 C4.2742558 1.5830577 6.26531794 4.50568404 9 8 C8.34 8 7.68 8 7 8 C7.66 9.65 8.32 11.3 9 13 C5.53084109 10.68722739 5.44908694 9.75057797 4 6 C2.70211044 3.97681922 1.37535339 1.97133986 0 0 Z " fill="#88B689" transform="translate(399,31)"/>
<path d="M0 0 C3.99500618 1.3697164 6.80009492 3.25722422 10 6 C9.67 6.66 9.34 7.32 9 8 C4.7257442 6.4169423 2.73468206 3.49431596 0 0 Z " fill="#68A378" transform="translate(32,138)"/>
</svg>
