<svg xmlns="http://www.w3.org/2000/svg" viewBox="0 0 351.281 351.281" style="enable-background:new 0 0 351.281 351.281" xml:space="preserve"><path style="fill:#fcbc1d" d="M296.21 54.891c16.02 16 28.89 35.16 37.56 56.48 8.07 19.84 12.51 41.54 12.51 64.27 0 12.3-1.3 24.3-3.78 35.86-7.12 33.32-23.97 63.03-47.44 86.02a170.612 170.612 0 0 1-38.3 28.27c-24.13 13.07-51.76 20.49-81.12 20.49-2.86 0-5.7-.07-8.52-.21-53.27-2.62-100.11-29.67-129.57-70.17C17.08 247.751 5 213.101 5 175.641c0-1.87.03-3.73.09-5.59 1.23-38.28 15.08-73.38 37.51-101.27 28.71-35.7 71.5-59.6 119.93-63.28 4.33-.33 8.7-.5 13.11-.5 38.41 0 73.85 12.69 102.37 34.1 6.44 4.83 12.52 10.11 18.2 15.79z"/><path style="opacity:.25;enable-background:new" d="M190.249 336.995c-19.96-7.05-38.22-17.72-53.98-31.21-36.59-31.3-59.78-77.8-59.78-129.72 0-46.04 18.24-87.83 47.88-118.52 16.33-16.91 36.12-30.46 58.23-39.5a169.69 169.69 0 0 1 28.788-8.857 171.254 171.254 0 0 0-35.745-3.763c-22.84 0-44.62 4.49-64.53 12.62-22.11 9.04-41.9 22.59-58.23 39.5-29.64 30.69-47.88 72.48-47.88 118.52 0 51.92 23.19 98.42 59.78 129.72 15.76 13.49 34.02 24.16 53.98 31.21 17.79 6.29 36.94 9.71 56.88 9.71 12.255 0 24.208-1.3 35.734-3.756a169.305 169.305 0 0 1-21.127-5.954zM255.729 135.54c-2.442-11.871 1.146-23.136 8.287-28.55 1.945-1.466 4.15-2.506 6.573-3.009 11.323-2.324 23.003 8.032 26.109 23.138 3.098 15.097-3.545 29.224-14.867 31.548-3.62.752-7.296.191-10.692-1.404-7.228-3.391-13.293-11.458-15.41-21.723z"/><path style="fill:#fcbc1d" d="M255.729 135.54c-2.442-11.871 1.146-23.136 8.287-28.55 7.227 3.393 13.309 11.463 15.409 21.724 2.442 11.872-1.146 23.136-8.287 28.55-7.227-3.392-13.292-11.459-15.409-21.724z"/><path style="fill:#333" d="M278.62 163.999c-3.228 0-6.488-.743-9.607-2.208a5 5 0 0 1 4.25-9.052c2.549 1.197 5.09 1.545 7.551 1.034 8.457-1.736 13.483-13.48 10.986-25.648-2.501-12.166-11.75-20.981-20.206-19.245-1.624.337-3.165 1.045-4.568 2.103-5.813 4.407-8.389 13.874-6.399 23.55a5 5 0 0 1-9.795 2.015c-2.792-13.577 1.197-26.743 10.164-33.541 2.603-1.962 5.485-3.278 8.578-3.92 14.011-2.874 28.367 9.25 32.022 27.027 3.648 17.781-4.768 34.582-18.761 37.453a20.729 20.729 0 0 1-4.215.432z"/><path style="fill:#fff" d="M297.309 98.958a4.995 4.995 0 0 1-4.207-2.291 146.89 146.89 0 0 0-22.393-26.99 5 5 0 0 1 6.879-7.259 156.886 156.886 0 0 1 23.918 28.829 5 5 0 0 1-4.197 7.711zM273.436 290.346a5 5 0 0 1-3.417-8.651c29.375-27.481 46.223-66.239 46.223-106.334 0-8.733-.782-17.485-2.325-26.011a5.001 5.001 0 0 1 9.84-1.781 156.484 156.484 0 0 1 2.485 27.792c0 42.852-18.002 84.271-49.391 113.637a4.988 4.988 0 0 1-3.415 1.348zM252.404 306.807a5 5 0 0 1-2.727-9.194 147.143 147.143 0 0 0 7.525-5.226 5 5 0 1 1 5.959 8.03 156.552 156.552 0 0 1-8.039 5.584 4.976 4.976 0 0 1-2.718.806z"/><path style="fill:#333" d="M175.641 351.281C78.792 351.281 0 272.489 0 175.641S78.792.001 175.641.001c96.848 0 175.64 78.792 175.64 175.64-.001 96.848-78.793 175.64-175.64 175.64zm0-341.28C84.306 10.001 10 84.307 10 175.641s74.306 165.64 165.641 165.64c91.334 0 165.64-74.306 165.64-165.64s-74.306-165.64-165.64-165.64z"/><path style="opacity:.25;enable-background:new" d="M204.154 182.161c0 17.89-14.51 32.4-32.4 32.4-3.51 0-6.89-.56-10.06-1.6 12.96-4.23 22.33-16.42 22.33-30.8s-9.37-26.57-22.33-30.8c3.17-1.04 6.55-1.6 10.06-1.6 17.89.001 32.4 14.51 32.4 32.4z"/><path style="fill:#fcbc1d" d="M99.495 259.024c-1.85 2.42-4.17 4.36-6.95 5.68-12.11 5.75-28.15-2.7-35.82-18.86-7.67-16.16-4.07-33.93 8.04-39.68 1.83-.87 3.75-1.41 5.72-1.65 11.04-1.36 23.58 6.79 30.1 20.52 5.91 12.461 5.13 25.861-1.09 33.99z"/><path style="opacity:.25;enable-background:new" d="M99.495 259.024c-11.05 1.37-23.59-6.79-30.1-20.51-5.91-12.46-5.13-25.87 1.09-34 11.04-1.36 23.58 6.79 30.1 20.52 5.91 12.461 5.13 25.861-1.09 33.99z"/><path style="fill:#333" d="M84.51 271.481c-12.337 0-25.414-8.986-32.299-23.492-8.842-18.629-4.173-39.415 10.408-46.336 7.313-3.472 15.853-3.008 24.047 1.306 7.715 4.063 14.261 11.14 18.432 19.928a4.999 4.999 0 0 1-2.373 6.661 4.999 4.999 0 0 1-6.66-2.373c-3.25-6.848-8.243-12.305-14.059-15.367-5.338-2.811-10.7-3.209-15.1-1.121-9.6 4.556-12.139 19.366-5.662 33.014 6.477 13.646 19.554 21.045 29.158 16.488 4.398-2.088 7.481-6.494 8.679-12.407a5 5 0 0 1 9.801 1.985c-1.838 9.075-6.878 15.984-14.192 19.456-3.227 1.532-6.674 2.258-10.18 2.258zM171.756 219.558c-20.621 0-37.397-16.776-37.397-37.397a5 5 0 1 1 10 0c0 15.107 12.29 27.397 27.397 27.397s27.397-12.291 27.397-27.397-12.29-27.397-27.397-27.397a27.353 27.353 0 0 0-14.085 3.892 5 5 0 0 1-5.148-8.573 37.35 37.35 0 0 1 19.233-5.32c20.621 0 37.397 16.776 37.397 37.397s-16.776 37.398-37.397 37.398zM169.759 100.182a17.535 17.535 0 0 1-12.48-5.169 5 5 0 0 1 7.072-7.071c1.444 1.445 3.365 2.24 5.408 2.24s3.964-.796 5.409-2.24c2.981-2.982 2.981-7.835-.001-10.818-1.444-1.445-3.365-2.24-5.408-2.24s-3.964.795-5.408 2.24a5 5 0 0 1-7.072-7.071 17.533 17.533 0 0 1 12.48-5.169c4.714 0 9.146 1.836 12.479 5.169 6.881 6.882 6.881 18.079.001 24.96a17.539 17.539 0 0 1-12.48 5.169zM232.147 280.552a17.535 17.535 0 0 1-12.48-5.169 5 5 0 0 1 7.072-7.071c1.444 1.445 3.365 2.24 5.408 2.24s3.964-.795 5.408-2.24a7.6 7.6 0 0 0 2.241-5.409 7.603 7.603 0 0 0-2.24-5.409c-1.445-1.445-3.366-2.24-5.409-2.24s-3.964.795-5.408 2.24a5 5 0 0 1-7.072-7.071c3.334-3.334 7.766-5.169 12.48-5.169s9.146 1.836 12.48 5.169c3.333 3.333 5.169 7.766 5.169 12.48s-1.836 9.147-5.17 12.48a17.53 17.53 0 0 1-12.479 5.169z"/></svg>