<svg xmlns="http://www.w3.org/2000/svg" viewBox="0 0 400 400" xml:space="preserve"><path fill="#FF7D5F" d="m200.749 94.601 18.761 23.195 26.971-12.757 6.839 29.038 29.836.208-6.437 29.13 26.788 13.134-18.44 23.452 18.44 23.455-26.788 13.133 6.437 29.128-29.836.211-6.839 29.036-26.971-12.756-18.761 23.192-18.761-23.192-26.972 12.756-6.838-29.036-29.833-.211 6.433-29.128-26.787-13.133 18.439-23.455-18.439-23.452 26.787-13.134-6.433-29.13 29.833-.208 6.838-29.038 26.972 12.757z"/><path fill="#FF9D8D" d="m139.7 265.867 5.119-23.175-26.788-13.133 18.44-23.454-18.44-23.453 26.788-13.134-6.434-29.13 29.833-.208 6.124-25.999-19.326-9.142-6.838 29.038-29.833.208 6.433 29.13-26.787 13.134 18.439 23.452-18.439 23.455 26.787 13.133-6.433 29.128zM202.028 123.9l11.211-13.859-12.49-15.44-16.788 20.754zM168.218 272.031l-18.634-.131 5.432 23.064 16.738-7.917zM202.028 288.311l-10.924 5.167 9.645 11.922 7.55-9.334z"/><path fill="#FFDA88" d="M262.924 200.001c0 34.341-27.836 62.179-62.175 62.179-34.341 0-62.178-27.838-62.178-62.179 0-34.34 27.837-62.176 62.178-62.176 34.338 0 62.175 27.837 62.175 62.176z"/><path fill="#FFE2A9" d="M148.402 200.001c0-32.681 25.228-59.416 57.262-61.928-1.625-.127-3.255-.248-4.916-.248-34.341 0-62.178 27.837-62.178 62.176 0 34.341 27.837 62.179 62.178 62.179 1.66 0 3.291-.121 4.916-.248-32.034-2.514-57.262-29.249-57.262-61.931z"/><path fill="#FFDA88" d="M300.074 89.852c0 5.994-4.86 10.852-10.853 10.852-5.994 0-10.85-4.858-10.85-10.852 0-5.994 4.856-10.852 10.85-10.852 5.994.001 10.853 4.858 10.853 10.852zM131.475 310.148c0 5.994-4.859 10.852-10.853 10.852s-10.85-4.858-10.85-10.852c0-5.994 4.857-10.852 10.85-10.852 5.994 0 10.853 4.858 10.853 10.852zM320.203 120.098a7.071 7.071 0 1 1-14.139-.001 7.071 7.071 0 0 1 14.139.001zM93.938 294.549a7.071 7.071 0 1 1-14.139-.001 7.071 7.071 0 0 1 14.139.001z"/><path fill="#FF7D5F" d="M157.395 200.536a4.537 4.537 0 0 1-4.537-4.537c0-24.082 19.591-43.673 43.673-43.673 2.508 0 4.537 2.031 4.537 4.538s-2.029 4.537-4.537 4.537c-19.078 0-34.598 15.521-34.598 34.598a4.537 4.537 0 0 1-4.538 4.537z"/><path fill="#FFE2A9" d="M287.989 89.852c0-4.259 2.473-7.904 6.041-9.682-1.453-.724-3.072-1.17-4.809-1.17-5.994 0-10.85 4.858-10.85 10.852 0 5.994 4.856 10.852 10.85 10.852 1.737 0 3.356-.446 4.809-1.17-3.568-1.778-6.041-5.423-6.041-9.682zM311.938 120.098a7.06 7.06 0 0 1 4.204-6.453 7.054 7.054 0 0 0-2.869-.617 7.071 7.071 0 1 0 0 14.142 7.078 7.078 0 0 0 2.869-.617c-2.476-1.104-4.204-3.574-4.204-6.455zM119.39 310.148c0-4.259 2.473-7.904 6.041-9.682-1.453-.724-3.073-1.17-4.809-1.17-5.994 0-10.85 4.858-10.85 10.852 0 5.994 4.857 10.852 10.85 10.852 1.737 0 3.356-.446 4.809-1.17-3.568-1.779-6.041-5.424-6.041-9.682zM85.533 294.549a7.06 7.06 0 0 1 4.204-6.453 7.061 7.061 0 0 0-2.869-.617 7.071 7.071 0 1 0 0 14.142 7.061 7.061 0 0 0 2.869-.617c-2.475-1.104-4.204-3.574-4.204-6.455z"/><g><path fill="#161616" d="M200.749 266.718c-36.787 0-66.715-29.929-66.715-66.717 0-36.786 29.928-66.714 66.715-66.714 36.786 0 66.712 29.928 66.712 66.714 0 16.835-6.347 32.94-17.871 45.348a4.538 4.538 0 1 1-6.649-6.177c9.96-10.723 15.445-24.634 15.445-39.171 0-31.781-25.856-57.639-57.637-57.639-31.783 0-57.64 25.857-57.64 57.639 0 31.783 25.857 57.642 57.64 57.642 8.853 0 17.423-2.018 25.472-5.995a4.536 4.536 0 0 1 6.078 2.057 4.537 4.537 0 0 1-2.058 6.078c-9.308 4.601-19.231 6.935-29.492 6.935z"/><path fill="#161616" d="M200.749 309.938a4.537 4.537 0 0 1-3.527-1.684l-16.519-20.419-23.746 11.23a4.532 4.532 0 0 1-6.355-3.062l-6.022-25.563-26.266-.186a4.537 4.537 0 0 1-4.398-5.517l5.664-25.645-23.584-11.564a4.536 4.536 0 0 1-1.57-6.879L110.66 200l-16.234-20.648a4.535 4.535 0 0 1 1.57-6.879l23.586-11.564-5.666-25.647a4.537 4.537 0 0 1 4.397-5.517l1.997-.015h.034a4.537 4.537 0 0 1 3.327 7.621l5.54 25.082a4.538 4.538 0 0 1-2.434 5.053l-21.751 10.666 14.973 19.042a4.539 4.539 0 0 1 0 5.61l-14.973 19.044 21.751 10.666a4.538 4.538 0 0 1 2.434 5.053l-5.224 23.65 24.225.171a4.537 4.537 0 0 1 4.384 3.498l5.554 23.575 21.9-10.357a4.54 4.54 0 0 1 5.467 1.248l15.234 18.831 15.234-18.831a4.542 4.542 0 0 1 5.467-1.248l21.9 10.357 5.554-23.575a4.538 4.538 0 0 1 4.384-3.498l24.228-.171-5.227-23.65a4.538 4.538 0 0 1 2.434-5.053l21.751-10.666-14.976-19.042a4.539 4.539 0 0 1 0-5.61l14.973-19.042-21.751-10.666a4.538 4.538 0 0 1-2.434-5.053l5.227-23.653-24.227-.168a4.537 4.537 0 0 1-4.385-3.498l-5.554-23.577-21.899 10.358a4.54 4.54 0 0 1-5.47-1.248l-15.233-18.834-15.233 18.834a4.543 4.543 0 0 1-5.469 1.248l-21.899-10.358-5.554 23.577a4.538 4.538 0 0 1-4.385 3.498l-5.568.038h-.031a4.538 4.538 0 0 1-.032-9.075l2.001-.013 6.021-25.565a4.538 4.538 0 0 1 6.357-3.062l23.745 11.231 16.518-20.422c1.725-2.13 5.332-2.13 7.057 0l16.518 20.422 23.745-11.231a4.536 4.536 0 0 1 6.357 3.062l6.022 25.565 26.268.183a4.54 4.54 0 0 1 4.4 5.517l-5.667 25.647 23.584 11.564a4.54 4.54 0 0 1 1.57 6.879l-16.234 20.648 16.234 20.649a4.543 4.543 0 0 1 .857 3.814 4.53 4.53 0 0 1-2.427 3.065l-23.584 11.564 5.667 25.645a4.539 4.539 0 0 1-4.398 5.517l-26.269.186-6.022 25.563a4.538 4.538 0 0 1-2.447 3.049 4.529 4.529 0 0 1-3.908.013l-23.746-11.23-16.519 20.419a4.54 4.54 0 0 1-3.527 1.682zM289.221 105.242c-8.486 0-15.388-6.904-15.388-15.389 0-8.486 6.902-15.389 15.388-15.389 8.487 0 15.391 6.904 15.391 15.389s-6.904 15.389-15.391 15.389zm0-21.704a6.321 6.321 0 0 0-6.313 6.314 6.32 6.32 0 0 0 6.313 6.314 6.322 6.322 0 0 0 6.316-6.314 6.322 6.322 0 0 0-6.316-6.314zM120.622 325.537c-8.486 0-15.388-6.904-15.388-15.389 0-8.486 6.902-15.389 15.388-15.389 8.487 0 15.391 6.904 15.391 15.389s-6.904 15.389-15.391 15.389zm0-21.704a6.321 6.321 0 0 0-6.313 6.314 6.32 6.32 0 0 0 6.313 6.314 6.322 6.322 0 0 0 6.316-6.314 6.322 6.322 0 0 0-6.316-6.314zM313.134 131.706c-6.401 0-11.61-5.208-11.61-11.608s5.208-11.608 11.61-11.608c6.4 0 11.607 5.208 11.607 11.608s-5.207 11.608-11.607 11.608zm0-14.141c-1.397 0-2.535 1.136-2.535 2.533s1.137 2.533 2.535 2.533c1.396 0 2.532-1.136 2.532-2.533s-1.136-2.533-2.532-2.533zM86.869 306.157c-6.402 0-11.61-5.208-11.61-11.608s5.208-11.608 11.61-11.608c6.4 0 11.607 5.208 11.607 11.608-.001 6.4-5.207 11.608-11.607 11.608zm0-14.142a2.537 2.537 0 0 0-2.535 2.533 2.537 2.537 0 0 0 2.535 2.533 2.535 2.535 0 0 0 2.532-2.533 2.537 2.537 0 0 0-2.532-2.533z"/><path fill="#161616" d="M157.395 200.536a4.537 4.537 0 0 1-4.537-4.537c0-24.082 19.591-43.673 43.673-43.673 2.508 0 4.537 2.031 4.537 4.538s-2.029 4.537-4.537 4.537c-19.078 0-34.598 15.521-34.598 34.598a4.537 4.537 0 0 1-4.538 4.537z"/></g></svg>